<mxfile host="app.diagrams.net" modified="2022-12-04T13:31:39.235Z" agent="5.0 (X11; Ubuntu)" etag="dP_vN2Nh8Ex26EaafOaw" version="20.6.0" type="github" pages="2">
  <diagram id="eqwL3PuyM8vPTdLs0j7_" name="Página-1">
    <mxGraphModel dx="1380" dy="793" grid="1" gridSize="10" guides="1" tooltips="1" connect="1" arrows="1" fold="1" page="1" pageScale="1" pageWidth="827" pageHeight="1169" math="0" shadow="0">
      <root>
        <mxCell id="0" />
        <mxCell id="1" parent="0" />
        <mxCell id="IN1cCxKcMP8BVI4Gp-H8-11" value="exceptions" style="shape=folder;fontStyle=1;tabWidth=110;tabHeight=30;tabPosition=left;html=1;boundedLbl=1;labelInHeader=1;container=0;collapsible=0;" parent="1" vertex="1">
          <mxGeometry x="620" y="380" width="250" height="260" as="geometry" />
        </mxCell>
        <mxCell id="IN1cCxKcMP8BVI4Gp-H8-20" style="edgeStyle=none;rounded=0;orthogonalLoop=1;jettySize=auto;html=1;exitX=0.5;exitY=1;exitDx=0;exitDy=0;entryX=0;entryY=0.25;entryDx=0;entryDy=0;dashed=1;endArrow=open;endFill=0;" parent="1" source="IN1cCxKcMP8BVI4Gp-H8-5" target="IN1cCxKcMP8BVI4Gp-H8-13" edge="1">
          <mxGeometry relative="1" as="geometry" />
        </mxCell>
        <mxCell id="IN1cCxKcMP8BVI4Gp-H8-19" style="edgeStyle=none;rounded=0;orthogonalLoop=1;jettySize=auto;html=1;exitX=1;exitY=0.75;exitDx=0;exitDy=0;entryX=0;entryY=0.5;entryDx=0;entryDy=0;dashed=1;endArrow=open;endFill=0;" parent="1" source="IN1cCxKcMP8BVI4Gp-H8-1" target="IN1cCxKcMP8BVI4Gp-H8-13" edge="1">
          <mxGeometry relative="1" as="geometry" />
        </mxCell>
        <mxCell id="LjDpb7JX_sXkQh5hrzfM-50" value="models" style="shape=folder;fontStyle=1;tabWidth=110;tabHeight=30;tabPosition=left;html=1;boundedLbl=1;labelInHeader=1;container=0;collapsible=0;" parent="1" vertex="1">
          <mxGeometry x="220" y="520" width="170" height="170" as="geometry" />
        </mxCell>
        <mxCell id="LjDpb7JX_sXkQh5hrzfM-40" value="middlewares" style="shape=folder;fontStyle=1;tabWidth=110;tabHeight=30;tabPosition=left;html=1;boundedLbl=1;labelInHeader=1;container=0;collapsible=0;" parent="1" vertex="1">
          <mxGeometry x="10" y="60" width="160" height="120" as="geometry" />
        </mxCell>
        <mxCell id="LjDpb7JX_sXkQh5hrzfM-34" value="parsers" style="shape=folder;fontStyle=1;tabWidth=110;tabHeight=30;tabPosition=left;html=1;boundedLbl=1;labelInHeader=1;container=0;collapsible=0;" parent="1" vertex="1">
          <mxGeometry x="10" y="430" width="160" height="190" as="geometry" />
        </mxCell>
        <mxCell id="LjDpb7JX_sXkQh5hrzfM-28" value="extractors" style="shape=folder;fontStyle=1;tabWidth=110;tabHeight=30;tabPosition=left;html=1;boundedLbl=1;labelInHeader=1;container=0;collapsible=0;" parent="1" vertex="1">
          <mxGeometry x="10" y="210" width="160" height="190" as="geometry" />
        </mxCell>
        <mxCell id="LjDpb7JX_sXkQh5hrzfM-2" value="controller" style="shape=folder;fontStyle=1;tabWidth=110;tabHeight=30;tabPosition=left;html=1;boundedLbl=1;labelInHeader=1;container=0;collapsible=0;" parent="1" vertex="1">
          <mxGeometry x="220" y="50" width="180" height="360" as="geometry" />
        </mxCell>
        <mxCell id="LjDpb7JX_sXkQh5hrzfM-6" value="&lt;div&gt;repositories&lt;/div&gt;" style="shape=folder;fontStyle=1;tabWidth=110;tabHeight=30;tabPosition=left;html=1;boundedLbl=1;labelInHeader=1;container=0;collapsible=0;" parent="1" vertex="1">
          <mxGeometry x="440" y="50" width="330" height="280" as="geometry" />
        </mxCell>
        <mxCell id="LjDpb7JX_sXkQh5hrzfM-10" style="rounded=0;orthogonalLoop=1;jettySize=auto;html=1;exitX=1;exitY=0.5;exitDx=0;exitDy=0;entryX=0;entryY=0.25;entryDx=0;entryDy=0;endArrow=open;endFill=0;" parent="1" source="LjDpb7JX_sXkQh5hrzfM-4" target="LjDpb7JX_sXkQh5hrzfM-8" edge="1">
          <mxGeometry relative="1" as="geometry" />
        </mxCell>
        <mxCell id="LjDpb7JX_sXkQh5hrzfM-3" value="" style="html=1;strokeColor=none;resizeWidth=1;resizeHeight=1;fillColor=none;part=1;connectable=0;allowArrows=0;deletable=0;" parent="1" vertex="1">
          <mxGeometry x="93" y="76" width="320" height="168" as="geometry">
            <mxPoint y="30" as="offset" />
          </mxGeometry>
        </mxCell>
        <mxCell id="LjDpb7JX_sXkQh5hrzfM-49" style="edgeStyle=none;rounded=0;orthogonalLoop=1;jettySize=auto;html=1;exitX=0.5;exitY=1;exitDx=0;exitDy=0;entryX=0.5;entryY=0;entryDx=0;entryDy=0;endArrow=open;endFill=0;dashed=1;" parent="1" source="LjDpb7JX_sXkQh5hrzfM-4" target="LjDpb7JX_sXkQh5hrzfM-47" edge="1">
          <mxGeometry relative="1" as="geometry" />
        </mxCell>
        <mxCell id="LjDpb7JX_sXkQh5hrzfM-4" value="«Controller»&lt;br&gt;&lt;b&gt;AuthController&lt;/b&gt;" style="html=1;dropTarget=0;" parent="1" vertex="1">
          <mxGeometry x="240" y="90" width="140" height="60" as="geometry" />
        </mxCell>
        <mxCell id="LjDpb7JX_sXkQh5hrzfM-5" value="" style="shape=module;jettyWidth=8;jettyHeight=4;" parent="LjDpb7JX_sXkQh5hrzfM-4" vertex="1">
          <mxGeometry x="1" width="20" height="20" relative="1" as="geometry">
            <mxPoint x="-27" y="7" as="offset" />
          </mxGeometry>
        </mxCell>
        <mxCell id="LjDpb7JX_sXkQh5hrzfM-7" value="" style="html=1;strokeColor=none;resizeWidth=1;resizeHeight=1;fillColor=none;part=1;connectable=0;allowArrows=0;deletable=0;" parent="1" vertex="1">
          <mxGeometry x="460" y="72" width="320" height="168" as="geometry">
            <mxPoint y="30" as="offset" />
          </mxGeometry>
        </mxCell>
        <mxCell id="LjDpb7JX_sXkQh5hrzfM-16" style="rounded=0;orthogonalLoop=1;jettySize=auto;html=1;exitX=1;exitY=0.5;exitDx=0;exitDy=0;entryX=0;entryY=0.25;entryDx=0;entryDy=0;endArrow=block;endFill=0;" parent="1" source="LjDpb7JX_sXkQh5hrzfM-8" target="LjDpb7JX_sXkQh5hrzfM-14" edge="1">
          <mxGeometry relative="1" as="geometry" />
        </mxCell>
        <mxCell id="IN1cCxKcMP8BVI4Gp-H8-17" style="edgeStyle=none;rounded=0;orthogonalLoop=1;jettySize=auto;html=1;exitX=0.5;exitY=1;exitDx=0;exitDy=0;entryX=0;entryY=0.5;entryDx=0;entryDy=0;dashed=1;endArrow=open;endFill=0;" parent="1" source="LjDpb7JX_sXkQh5hrzfM-8" target="IN1cCxKcMP8BVI4Gp-H8-12" edge="1">
          <mxGeometry relative="1" as="geometry" />
        </mxCell>
        <mxCell id="LjDpb7JX_sXkQh5hrzfM-8" value="«Repository»&lt;br&gt;&lt;b&gt;ArduinoRepository&lt;/b&gt;" style="html=1;dropTarget=0;" parent="1" vertex="1">
          <mxGeometry x="460" y="100" width="140" height="60" as="geometry" />
        </mxCell>
        <mxCell id="LjDpb7JX_sXkQh5hrzfM-9" value="" style="shape=module;jettyWidth=8;jettyHeight=4;" parent="LjDpb7JX_sXkQh5hrzfM-8" vertex="1">
          <mxGeometry x="1" width="20" height="20" relative="1" as="geometry">
            <mxPoint x="-27" y="7" as="offset" />
          </mxGeometry>
        </mxCell>
        <mxCell id="LjDpb7JX_sXkQh5hrzfM-14" value="«Repository»&lt;br&gt;&lt;b&gt;Repository&lt;/b&gt;" style="html=1;dropTarget=0;" parent="1" vertex="1">
          <mxGeometry x="620" y="180" width="140" height="60" as="geometry" />
        </mxCell>
        <mxCell id="LjDpb7JX_sXkQh5hrzfM-15" value="" style="shape=module;jettyWidth=8;jettyHeight=4;" parent="LjDpb7JX_sXkQh5hrzfM-14" vertex="1">
          <mxGeometry x="1" width="20" height="20" relative="1" as="geometry">
            <mxPoint x="-27" y="7" as="offset" />
          </mxGeometry>
        </mxCell>
        <mxCell id="LjDpb7JX_sXkQh5hrzfM-19" style="rounded=0;orthogonalLoop=1;jettySize=auto;html=1;exitX=1;exitY=0.5;exitDx=0;exitDy=0;entryX=0;entryY=0.5;entryDx=0;entryDy=0;endArrow=block;endFill=0;" parent="1" source="LjDpb7JX_sXkQh5hrzfM-17" target="LjDpb7JX_sXkQh5hrzfM-14" edge="1">
          <mxGeometry relative="1" as="geometry" />
        </mxCell>
        <mxCell id="LjDpb7JX_sXkQh5hrzfM-17" value="«Repository»&lt;br&gt;&lt;b&gt;RecordRepository&lt;/b&gt;" style="html=1;dropTarget=0;" parent="1" vertex="1">
          <mxGeometry x="460" y="180" width="140" height="60" as="geometry" />
        </mxCell>
        <mxCell id="LjDpb7JX_sXkQh5hrzfM-18" value="" style="shape=module;jettyWidth=8;jettyHeight=4;" parent="LjDpb7JX_sXkQh5hrzfM-17" vertex="1">
          <mxGeometry x="1" width="20" height="20" relative="1" as="geometry">
            <mxPoint x="-27" y="7" as="offset" />
          </mxGeometry>
        </mxCell>
        <mxCell id="LjDpb7JX_sXkQh5hrzfM-22" style="edgeStyle=none;rounded=0;orthogonalLoop=1;jettySize=auto;html=1;exitX=1;exitY=0.5;exitDx=0;exitDy=0;entryX=0;entryY=0.5;entryDx=0;entryDy=0;endArrow=open;endFill=0;" parent="1" source="LjDpb7JX_sXkQh5hrzfM-20" target="LjDpb7JX_sXkQh5hrzfM-8" edge="1">
          <mxGeometry relative="1" as="geometry" />
        </mxCell>
        <mxCell id="LjDpb7JX_sXkQh5hrzfM-45" style="edgeStyle=none;rounded=0;orthogonalLoop=1;jettySize=auto;html=1;exitX=0;exitY=0.5;exitDx=0;exitDy=0;entryX=1;entryY=0.25;entryDx=0;entryDy=0;endArrow=diamondThin;endFill=1;" parent="1" source="LjDpb7JX_sXkQh5hrzfM-20" target="LjDpb7JX_sXkQh5hrzfM-43" edge="1">
          <mxGeometry relative="1" as="geometry" />
        </mxCell>
        <mxCell id="IN1cCxKcMP8BVI4Gp-H8-16" style="edgeStyle=none;rounded=0;orthogonalLoop=1;jettySize=auto;html=1;exitX=1;exitY=0.75;exitDx=0;exitDy=0;entryX=0;entryY=0.75;entryDx=0;entryDy=0;endArrow=open;endFill=0;dashed=1;" parent="1" source="LjDpb7JX_sXkQh5hrzfM-20" target="IN1cCxKcMP8BVI4Gp-H8-12" edge="1">
          <mxGeometry relative="1" as="geometry" />
        </mxCell>
        <mxCell id="LjDpb7JX_sXkQh5hrzfM-20" value="«Controller»&lt;br&gt;&lt;b&gt;ArduinoController&lt;/b&gt;" style="html=1;dropTarget=0;" parent="1" vertex="1">
          <mxGeometry x="240" y="170" width="140" height="60" as="geometry" />
        </mxCell>
        <mxCell id="LjDpb7JX_sXkQh5hrzfM-21" value="" style="shape=module;jettyWidth=8;jettyHeight=4;" parent="LjDpb7JX_sXkQh5hrzfM-20" vertex="1">
          <mxGeometry x="1" width="20" height="20" relative="1" as="geometry">
            <mxPoint x="-27" y="7" as="offset" />
          </mxGeometry>
        </mxCell>
        <mxCell id="LjDpb7JX_sXkQh5hrzfM-25" style="edgeStyle=none;rounded=0;orthogonalLoop=1;jettySize=auto;html=1;exitX=1;exitY=0.5;exitDx=0;exitDy=0;entryX=0;entryY=0.5;entryDx=0;entryDy=0;endArrow=open;endFill=0;" parent="1" source="LjDpb7JX_sXkQh5hrzfM-23" target="LjDpb7JX_sXkQh5hrzfM-17" edge="1">
          <mxGeometry relative="1" as="geometry" />
        </mxCell>
        <mxCell id="LjDpb7JX_sXkQh5hrzfM-33" style="edgeStyle=none;rounded=0;orthogonalLoop=1;jettySize=auto;html=1;exitX=0;exitY=0.5;exitDx=0;exitDy=0;entryX=1;entryY=0.5;entryDx=0;entryDy=0;dashed=1;endArrow=open;endFill=0;" parent="1" source="LjDpb7JX_sXkQh5hrzfM-23" target="LjDpb7JX_sXkQh5hrzfM-29" edge="1">
          <mxGeometry relative="1" as="geometry" />
        </mxCell>
        <mxCell id="LjDpb7JX_sXkQh5hrzfM-39" style="edgeStyle=none;rounded=0;orthogonalLoop=1;jettySize=auto;html=1;exitX=0;exitY=0.75;exitDx=0;exitDy=0;entryX=1;entryY=0.5;entryDx=0;entryDy=0;dashed=1;endArrow=open;endFill=0;" parent="1" source="LjDpb7JX_sXkQh5hrzfM-23" target="LjDpb7JX_sXkQh5hrzfM-35" edge="1">
          <mxGeometry relative="1" as="geometry" />
        </mxCell>
        <mxCell id="LjDpb7JX_sXkQh5hrzfM-46" style="edgeStyle=none;rounded=0;orthogonalLoop=1;jettySize=auto;html=1;exitX=0;exitY=0.25;exitDx=0;exitDy=0;entryX=1;entryY=0.5;entryDx=0;entryDy=0;endArrow=diamondThin;endFill=1;" parent="1" source="LjDpb7JX_sXkQh5hrzfM-23" target="LjDpb7JX_sXkQh5hrzfM-43" edge="1">
          <mxGeometry relative="1" as="geometry" />
        </mxCell>
        <mxCell id="LjDpb7JX_sXkQh5hrzfM-23" value="«Controller»&lt;br&gt;&lt;b&gt;RecordController&lt;/b&gt;" style="html=1;dropTarget=0;" parent="1" vertex="1">
          <mxGeometry x="240" y="250" width="140" height="60" as="geometry" />
        </mxCell>
        <mxCell id="LjDpb7JX_sXkQh5hrzfM-24" value="" style="shape=module;jettyWidth=8;jettyHeight=4;" parent="LjDpb7JX_sXkQh5hrzfM-23" vertex="1">
          <mxGeometry x="1" width="20" height="20" relative="1" as="geometry">
            <mxPoint x="-27" y="7" as="offset" />
          </mxGeometry>
        </mxCell>
        <mxCell id="LjDpb7JX_sXkQh5hrzfM-29" value="&lt;div&gt;«interface»&lt;b&gt;&lt;br&gt;&lt;/b&gt;&lt;/div&gt;&lt;div&gt;&lt;b&gt;IWheatherExtractor&lt;/b&gt;&lt;/div&gt;" style="html=1;" parent="1" vertex="1">
          <mxGeometry x="27.5" y="260" width="125" height="50" as="geometry" />
        </mxCell>
        <mxCell id="LjDpb7JX_sXkQh5hrzfM-32" style="edgeStyle=none;rounded=0;orthogonalLoop=1;jettySize=auto;html=1;exitX=0.5;exitY=0;exitDx=0;exitDy=0;entryX=0.5;entryY=1;entryDx=0;entryDy=0;endArrow=block;endFill=0;dashed=1;" parent="1" source="LjDpb7JX_sXkQh5hrzfM-30" target="LjDpb7JX_sXkQh5hrzfM-29" edge="1">
          <mxGeometry relative="1" as="geometry" />
        </mxCell>
        <mxCell id="LjDpb7JX_sXkQh5hrzfM-30" value="&lt;div&gt;«Extractor»&lt;b&gt;&lt;br&gt;&lt;/b&gt;&lt;/div&gt;&lt;div&gt;&lt;b&gt;OpenWeatherExtractor&lt;/b&gt;&lt;/div&gt;" style="html=1;dropTarget=0;" parent="1" vertex="1">
          <mxGeometry x="20" y="330" width="140" height="60" as="geometry" />
        </mxCell>
        <mxCell id="LjDpb7JX_sXkQh5hrzfM-31" value="" style="shape=module;jettyWidth=8;jettyHeight=4;" parent="LjDpb7JX_sXkQh5hrzfM-30" vertex="1">
          <mxGeometry x="1" width="20" height="20" relative="1" as="geometry">
            <mxPoint x="-27" y="7" as="offset" />
          </mxGeometry>
        </mxCell>
        <mxCell id="LjDpb7JX_sXkQh5hrzfM-35" value="&lt;div&gt;«interface»&lt;b&gt;&lt;br&gt;&lt;/b&gt;&lt;/div&gt;&lt;div&gt;&lt;b&gt;IWheatherParser&lt;/b&gt;&lt;/div&gt;" style="html=1;" parent="1" vertex="1">
          <mxGeometry x="27.5" y="480" width="125" height="50" as="geometry" />
        </mxCell>
        <mxCell id="LjDpb7JX_sXkQh5hrzfM-36" style="edgeStyle=none;rounded=0;orthogonalLoop=1;jettySize=auto;html=1;exitX=0.5;exitY=0;exitDx=0;exitDy=0;entryX=0.5;entryY=1;entryDx=0;entryDy=0;endArrow=block;endFill=0;dashed=1;" parent="1" source="LjDpb7JX_sXkQh5hrzfM-37" target="LjDpb7JX_sXkQh5hrzfM-35" edge="1">
          <mxGeometry relative="1" as="geometry" />
        </mxCell>
        <mxCell id="LjDpb7JX_sXkQh5hrzfM-37" value="&lt;div&gt;«Parser»&lt;b&gt;&lt;br&gt;&lt;/b&gt;&lt;/div&gt;&lt;div&gt;&lt;b&gt;OpenWeatherParser&lt;/b&gt;&lt;/div&gt;" style="html=1;dropTarget=0;" parent="1" vertex="1">
          <mxGeometry x="20" y="550" width="140" height="60" as="geometry" />
        </mxCell>
        <mxCell id="LjDpb7JX_sXkQh5hrzfM-38" value="" style="shape=module;jettyWidth=8;jettyHeight=4;" parent="LjDpb7JX_sXkQh5hrzfM-37" vertex="1">
          <mxGeometry x="1" width="20" height="20" relative="1" as="geometry">
            <mxPoint x="-27" y="7" as="offset" />
          </mxGeometry>
        </mxCell>
        <mxCell id="LjDpb7JX_sXkQh5hrzfM-43" value="&lt;div&gt;«Extractor»&lt;b&gt;&lt;br&gt;&lt;/b&gt;&lt;/div&gt;&lt;div&gt;&lt;b&gt;AuthMiddleware&lt;/b&gt;&lt;/div&gt;" style="html=1;dropTarget=0;" parent="1" vertex="1">
          <mxGeometry x="20" y="100" width="140" height="60" as="geometry" />
        </mxCell>
        <mxCell id="LjDpb7JX_sXkQh5hrzfM-44" value="" style="shape=module;jettyWidth=8;jettyHeight=4;" parent="LjDpb7JX_sXkQh5hrzfM-43" vertex="1">
          <mxGeometry x="1" width="20" height="20" relative="1" as="geometry">
            <mxPoint x="-27" y="7" as="offset" />
          </mxGeometry>
        </mxCell>
        <mxCell id="LjDpb7JX_sXkQh5hrzfM-58" style="edgeStyle=none;rounded=0;orthogonalLoop=1;jettySize=auto;html=1;exitX=0.5;exitY=1;exitDx=0;exitDy=0;entryX=0.5;entryY=0;entryDx=0;entryDy=0;endArrow=diamondThin;endFill=0;" parent="1" source="LjDpb7JX_sXkQh5hrzfM-47" target="LjDpb7JX_sXkQh5hrzfM-56" edge="1">
          <mxGeometry relative="1" as="geometry" />
        </mxCell>
        <mxCell id="LjDpb7JX_sXkQh5hrzfM-47" value="&lt;div&gt;«Src»&lt;/div&gt;&lt;div&gt;&lt;b&gt;Config&lt;/b&gt;&lt;/div&gt;" style="html=1;dropTarget=0;" parent="1" vertex="1">
          <mxGeometry x="235" y="440" width="140" height="60" as="geometry" />
        </mxCell>
        <mxCell id="LjDpb7JX_sXkQh5hrzfM-48" value="" style="shape=module;jettyWidth=8;jettyHeight=4;" parent="LjDpb7JX_sXkQh5hrzfM-47" vertex="1">
          <mxGeometry x="1" width="20" height="20" relative="1" as="geometry">
            <mxPoint x="-27" y="7" as="offset" />
          </mxGeometry>
        </mxCell>
        <mxCell id="LjDpb7JX_sXkQh5hrzfM-56" value="«interface»&lt;br&gt;&lt;div&gt;&lt;b&gt;DatabaseConfig&lt;/b&gt;&lt;/div&gt;" style="html=1;" parent="1" vertex="1">
          <mxGeometry x="250" y="570" width="110" height="50" as="geometry" />
        </mxCell>
        <mxCell id="LjDpb7JX_sXkQh5hrzfM-57" value="«interface»&lt;br&gt;&lt;div&gt;&lt;b&gt;JwtResponsePayload&lt;/b&gt;&lt;/div&gt;" style="html=1;" parent="1" vertex="1">
          <mxGeometry x="235" y="630" width="145" height="50" as="geometry" />
        </mxCell>
        <mxCell id="LjDpb7JX_sXkQh5hrzfM-66" value="database" style="shape=folder;fontStyle=1;tabWidth=110;tabHeight=30;tabPosition=left;html=1;boundedLbl=1;labelInHeader=1;container=0;collapsible=0;" parent="1" vertex="1">
          <mxGeometry x="440" y="380" width="160" height="190" as="geometry" />
        </mxCell>
        <mxCell id="LjDpb7JX_sXkQh5hrzfM-67" value="&lt;div&gt;«interface»&lt;b&gt;&lt;br&gt;&lt;/b&gt;&lt;/div&gt;&lt;b&gt;IConnector&lt;/b&gt;" style="html=1;" parent="1" vertex="1">
          <mxGeometry x="457.5" y="430" width="125" height="50" as="geometry" />
        </mxCell>
        <mxCell id="LjDpb7JX_sXkQh5hrzfM-68" style="edgeStyle=none;rounded=0;orthogonalLoop=1;jettySize=auto;html=1;exitX=0.5;exitY=0;exitDx=0;exitDy=0;entryX=0.5;entryY=1;entryDx=0;entryDy=0;endArrow=block;endFill=0;dashed=1;" parent="1" source="LjDpb7JX_sXkQh5hrzfM-69" target="LjDpb7JX_sXkQh5hrzfM-67" edge="1">
          <mxGeometry relative="1" as="geometry" />
        </mxCell>
        <mxCell id="LjDpb7JX_sXkQh5hrzfM-69" value="&lt;div&gt;«Connector»&lt;b&gt;&lt;br&gt;&lt;/b&gt;&lt;/div&gt;&lt;div&gt;&lt;b&gt;PostgresDatabase&lt;/b&gt;&lt;/div&gt;" style="html=1;dropTarget=0;" parent="1" vertex="1">
          <mxGeometry x="450" y="500" width="140" height="60" as="geometry" />
        </mxCell>
        <mxCell id="LjDpb7JX_sXkQh5hrzfM-70" value="" style="shape=module;jettyWidth=8;jettyHeight=4;" parent="LjDpb7JX_sXkQh5hrzfM-69" vertex="1">
          <mxGeometry x="1" width="20" height="20" relative="1" as="geometry">
            <mxPoint x="-27" y="7" as="offset" />
          </mxGeometry>
        </mxCell>
        <mxCell id="IN1cCxKcMP8BVI4Gp-H8-4" style="rounded=0;orthogonalLoop=1;jettySize=auto;html=1;exitX=0;exitY=0.5;exitDx=0;exitDy=0;entryX=1;entryY=0.75;entryDx=0;entryDy=0;endArrow=diamondThin;endFill=1;" parent="1" source="IN1cCxKcMP8BVI4Gp-H8-1" target="LjDpb7JX_sXkQh5hrzfM-43" edge="1">
          <mxGeometry relative="1" as="geometry" />
        </mxCell>
        <mxCell id="IN1cCxKcMP8BVI4Gp-H8-7" style="edgeStyle=none;rounded=0;orthogonalLoop=1;jettySize=auto;html=1;exitX=1;exitY=0.25;exitDx=0;exitDy=0;entryX=0;entryY=0.75;entryDx=0;entryDy=0;endArrow=open;endFill=0;" parent="1" source="IN1cCxKcMP8BVI4Gp-H8-1" target="LjDpb7JX_sXkQh5hrzfM-8" edge="1">
          <mxGeometry relative="1" as="geometry" />
        </mxCell>
        <mxCell id="IN1cCxKcMP8BVI4Gp-H8-8" style="edgeStyle=none;rounded=0;orthogonalLoop=1;jettySize=auto;html=1;exitX=1;exitY=0.5;exitDx=0;exitDy=0;entryX=0;entryY=0.5;entryDx=0;entryDy=0;endArrow=open;endFill=0;" parent="1" source="IN1cCxKcMP8BVI4Gp-H8-1" target="IN1cCxKcMP8BVI4Gp-H8-5" edge="1">
          <mxGeometry relative="1" as="geometry" />
        </mxCell>
        <mxCell id="IN1cCxKcMP8BVI4Gp-H8-1" value="«Controller»&lt;br&gt;&lt;div&gt;&lt;b&gt;ConnectionsController&lt;/b&gt;&lt;/div&gt;" style="html=1;dropTarget=0;" parent="1" vertex="1">
          <mxGeometry x="237.5" y="330" width="140" height="60" as="geometry" />
        </mxCell>
        <mxCell id="IN1cCxKcMP8BVI4Gp-H8-2" value="" style="shape=module;jettyWidth=8;jettyHeight=4;" parent="IN1cCxKcMP8BVI4Gp-H8-1" vertex="1">
          <mxGeometry x="1" width="20" height="20" relative="1" as="geometry">
            <mxPoint x="-27" y="7" as="offset" />
          </mxGeometry>
        </mxCell>
        <mxCell id="IN1cCxKcMP8BVI4Gp-H8-9" style="edgeStyle=none;rounded=0;orthogonalLoop=1;jettySize=auto;html=1;exitX=1;exitY=0.5;exitDx=0;exitDy=0;entryX=0;entryY=0.75;entryDx=0;entryDy=0;endArrow=block;endFill=0;" parent="1" source="IN1cCxKcMP8BVI4Gp-H8-5" target="LjDpb7JX_sXkQh5hrzfM-14" edge="1">
          <mxGeometry relative="1" as="geometry" />
        </mxCell>
        <mxCell id="IN1cCxKcMP8BVI4Gp-H8-5" value="«Repository»&lt;br&gt;&lt;b&gt;ConnectionsRepository&lt;/b&gt;" style="html=1;dropTarget=0;" parent="1" vertex="1">
          <mxGeometry x="460" y="255" width="140" height="60" as="geometry" />
        </mxCell>
        <mxCell id="IN1cCxKcMP8BVI4Gp-H8-6" value="" style="shape=module;jettyWidth=8;jettyHeight=4;" parent="IN1cCxKcMP8BVI4Gp-H8-5" vertex="1">
          <mxGeometry x="1" width="20" height="20" relative="1" as="geometry">
            <mxPoint x="-27" y="7" as="offset" />
          </mxGeometry>
        </mxCell>
        <mxCell id="IN1cCxKcMP8BVI4Gp-H8-12" value="«error»&lt;br&gt;&lt;div&gt;&lt;b&gt;ArduinoDoesNotExistsException&lt;/b&gt;&lt;/div&gt;" style="html=1;" parent="1" vertex="1">
          <mxGeometry x="640" y="430" width="210" height="50" as="geometry" />
        </mxCell>
        <mxCell id="IN1cCxKcMP8BVI4Gp-H8-13" value="«error»&lt;br&gt;&lt;div&gt;&lt;b&gt;ConnectionDoesNotExistsException&lt;/b&gt;&lt;/div&gt;" style="html=1;" parent="1" vertex="1">
          <mxGeometry x="632.5" y="505" width="225" height="50" as="geometry" />
        </mxCell>
        <mxCell id="IN1cCxKcMP8BVI4Gp-H8-14" value="«error»&lt;br&gt;&lt;div&gt;&lt;b&gt;MobileDoesNotExistsException&lt;/b&gt;&lt;/div&gt;" style="html=1;" parent="1" vertex="1">
          <mxGeometry x="651.25" y="580" width="187.5" height="50" as="geometry" />
        </mxCell>
        <mxCell id="IN1cCxKcMP8BVI4Gp-H8-15" style="edgeStyle=none;rounded=0;orthogonalLoop=1;jettySize=auto;html=1;exitX=0;exitY=0;exitDx=0;exitDy=135;exitPerimeter=0;endArrow=block;endFill=0;" parent="1" source="IN1cCxKcMP8BVI4Gp-H8-11" target="IN1cCxKcMP8BVI4Gp-H8-11" edge="1">
          <mxGeometry relative="1" as="geometry" />
        </mxCell>
      </root>
    </mxGraphModel>
  </diagram>
  <diagram name="Colorida" id="6T1bAFmlDoBCOrEYaO-E">
    <mxGraphModel dx="1380" dy="793" grid="1" gridSize="10" guides="1" tooltips="1" connect="1" arrows="1" fold="1" page="1" pageScale="1" pageWidth="827" pageHeight="1169" math="0" shadow="0">
      <root>
        <mxCell id="UMcfs1S_rAOMvREuSRE9-0" />
        <mxCell id="UMcfs1S_rAOMvREuSRE9-1" parent="UMcfs1S_rAOMvREuSRE9-0" />
        <mxCell id="UMcfs1S_rAOMvREuSRE9-2" value="exceptions" style="shape=folder;fontStyle=1;tabWidth=110;tabHeight=30;tabPosition=left;html=1;boundedLbl=1;labelInHeader=1;container=0;collapsible=0;fillColor=#f8cecc;strokeColor=#b85450;" vertex="1" parent="UMcfs1S_rAOMvREuSRE9-1">
          <mxGeometry x="620" y="380" width="250" height="260" as="geometry" />
        </mxCell>
        <mxCell id="UMcfs1S_rAOMvREuSRE9-3" style="edgeStyle=none;rounded=0;orthogonalLoop=1;jettySize=auto;html=1;exitX=0.5;exitY=1;exitDx=0;exitDy=0;entryX=0;entryY=0.25;entryDx=0;entryDy=0;dashed=1;endArrow=open;endFill=0;" edge="1" parent="UMcfs1S_rAOMvREuSRE9-1" source="UMcfs1S_rAOMvREuSRE9-63" target="UMcfs1S_rAOMvREuSRE9-66">
          <mxGeometry relative="1" as="geometry" />
        </mxCell>
        <mxCell id="UMcfs1S_rAOMvREuSRE9-4" style="edgeStyle=none;rounded=0;orthogonalLoop=1;jettySize=auto;html=1;exitX=1;exitY=0.75;exitDx=0;exitDy=0;entryX=0;entryY=0.5;entryDx=0;entryDy=0;dashed=1;endArrow=open;endFill=0;" edge="1" parent="UMcfs1S_rAOMvREuSRE9-1" source="UMcfs1S_rAOMvREuSRE9-60" target="UMcfs1S_rAOMvREuSRE9-66">
          <mxGeometry relative="1" as="geometry" />
        </mxCell>
        <mxCell id="UMcfs1S_rAOMvREuSRE9-5" value="models" style="shape=folder;fontStyle=1;tabWidth=110;tabHeight=30;tabPosition=left;html=1;boundedLbl=1;labelInHeader=1;container=0;collapsible=0;fillColor=#fff2cc;strokeColor=#d6b656;" vertex="1" parent="UMcfs1S_rAOMvREuSRE9-1">
          <mxGeometry x="220" y="520" width="170" height="170" as="geometry" />
        </mxCell>
        <mxCell id="UMcfs1S_rAOMvREuSRE9-6" value="middlewares" style="shape=folder;fontStyle=1;tabWidth=110;tabHeight=30;tabPosition=left;html=1;boundedLbl=1;labelInHeader=1;container=0;collapsible=0;fillColor=#d5e8d4;strokeColor=#82b366;" vertex="1" parent="UMcfs1S_rAOMvREuSRE9-1">
          <mxGeometry x="10" y="60" width="160" height="120" as="geometry" />
        </mxCell>
        <mxCell id="UMcfs1S_rAOMvREuSRE9-7" value="parsers" style="shape=folder;fontStyle=1;tabWidth=110;tabHeight=30;tabPosition=left;html=1;boundedLbl=1;labelInHeader=1;container=0;collapsible=0;fillColor=#f8cecc;strokeColor=#b85450;" vertex="1" parent="UMcfs1S_rAOMvREuSRE9-1">
          <mxGeometry x="10" y="430" width="160" height="190" as="geometry" />
        </mxCell>
        <mxCell id="UMcfs1S_rAOMvREuSRE9-8" value="extractors" style="shape=folder;fontStyle=1;tabWidth=110;tabHeight=30;tabPosition=left;html=1;boundedLbl=1;labelInHeader=1;container=0;collapsible=0;fillColor=#dae8fc;strokeColor=#6c8ebf;" vertex="1" parent="UMcfs1S_rAOMvREuSRE9-1">
          <mxGeometry x="10" y="210" width="160" height="190" as="geometry" />
        </mxCell>
        <mxCell id="UMcfs1S_rAOMvREuSRE9-9" value="controller" style="shape=folder;fontStyle=1;tabWidth=110;tabHeight=30;tabPosition=left;html=1;boundedLbl=1;labelInHeader=1;container=0;collapsible=0;fillColor=#d5e8d4;strokeColor=#82b366;" vertex="1" parent="UMcfs1S_rAOMvREuSRE9-1">
          <mxGeometry x="220" y="50" width="180" height="360" as="geometry" />
        </mxCell>
        <mxCell id="UMcfs1S_rAOMvREuSRE9-10" value="&lt;div&gt;repositories&lt;/div&gt;" style="shape=folder;fontStyle=1;tabWidth=110;tabHeight=30;tabPosition=left;html=1;boundedLbl=1;labelInHeader=1;container=0;collapsible=0;fillColor=#dae8fc;strokeColor=#6c8ebf;" vertex="1" parent="UMcfs1S_rAOMvREuSRE9-1">
          <mxGeometry x="440" y="50" width="330" height="280" as="geometry" />
        </mxCell>
        <mxCell id="UMcfs1S_rAOMvREuSRE9-11" style="rounded=0;orthogonalLoop=1;jettySize=auto;html=1;exitX=1;exitY=0.5;exitDx=0;exitDy=0;entryX=0;entryY=0.25;entryDx=0;entryDy=0;endArrow=open;endFill=0;" edge="1" parent="UMcfs1S_rAOMvREuSRE9-1" source="UMcfs1S_rAOMvREuSRE9-14" target="UMcfs1S_rAOMvREuSRE9-19">
          <mxGeometry relative="1" as="geometry" />
        </mxCell>
        <mxCell id="UMcfs1S_rAOMvREuSRE9-12" value="" style="html=1;strokeColor=none;resizeWidth=1;resizeHeight=1;fillColor=none;part=1;connectable=0;allowArrows=0;deletable=0;" vertex="1" parent="UMcfs1S_rAOMvREuSRE9-1">
          <mxGeometry x="93" y="76" width="320" height="168" as="geometry">
            <mxPoint y="30" as="offset" />
          </mxGeometry>
        </mxCell>
        <mxCell id="UMcfs1S_rAOMvREuSRE9-13" style="edgeStyle=none;rounded=0;orthogonalLoop=1;jettySize=auto;html=1;exitX=0.5;exitY=1;exitDx=0;exitDy=0;entryX=0.5;entryY=0;entryDx=0;entryDy=0;endArrow=open;endFill=0;dashed=1;" edge="1" parent="UMcfs1S_rAOMvREuSRE9-1" source="UMcfs1S_rAOMvREuSRE9-14" target="UMcfs1S_rAOMvREuSRE9-48">
          <mxGeometry relative="1" as="geometry" />
        </mxCell>
        <mxCell id="UMcfs1S_rAOMvREuSRE9-14" value="«Controller»&lt;br&gt;&lt;b&gt;AuthController&lt;/b&gt;" style="html=1;dropTarget=0;" vertex="1" parent="UMcfs1S_rAOMvREuSRE9-1">
          <mxGeometry x="240" y="90" width="140" height="60" as="geometry" />
        </mxCell>
        <mxCell id="UMcfs1S_rAOMvREuSRE9-15" value="" style="shape=module;jettyWidth=8;jettyHeight=4;" vertex="1" parent="UMcfs1S_rAOMvREuSRE9-14">
          <mxGeometry x="1" width="20" height="20" relative="1" as="geometry">
            <mxPoint x="-27" y="7" as="offset" />
          </mxGeometry>
        </mxCell>
        <mxCell id="UMcfs1S_rAOMvREuSRE9-16" value="" style="html=1;strokeColor=none;resizeWidth=1;resizeHeight=1;fillColor=none;part=1;connectable=0;allowArrows=0;deletable=0;" vertex="1" parent="UMcfs1S_rAOMvREuSRE9-1">
          <mxGeometry x="460" y="72" width="320" height="168" as="geometry">
            <mxPoint y="30" as="offset" />
          </mxGeometry>
        </mxCell>
        <mxCell id="UMcfs1S_rAOMvREuSRE9-17" style="rounded=0;orthogonalLoop=1;jettySize=auto;html=1;exitX=1;exitY=0.5;exitDx=0;exitDy=0;entryX=0;entryY=0.25;entryDx=0;entryDy=0;endArrow=block;endFill=0;" edge="1" parent="UMcfs1S_rAOMvREuSRE9-1" source="UMcfs1S_rAOMvREuSRE9-19" target="UMcfs1S_rAOMvREuSRE9-21">
          <mxGeometry relative="1" as="geometry" />
        </mxCell>
        <mxCell id="UMcfs1S_rAOMvREuSRE9-18" style="edgeStyle=none;rounded=0;orthogonalLoop=1;jettySize=auto;html=1;exitX=0.5;exitY=1;exitDx=0;exitDy=0;entryX=0;entryY=0.5;entryDx=0;entryDy=0;dashed=1;endArrow=open;endFill=0;" edge="1" parent="UMcfs1S_rAOMvREuSRE9-1" source="UMcfs1S_rAOMvREuSRE9-19" target="UMcfs1S_rAOMvREuSRE9-65">
          <mxGeometry relative="1" as="geometry" />
        </mxCell>
        <mxCell id="UMcfs1S_rAOMvREuSRE9-19" value="«Repository»&lt;br&gt;&lt;b&gt;ArduinoRepository&lt;/b&gt;" style="html=1;dropTarget=0;" vertex="1" parent="UMcfs1S_rAOMvREuSRE9-1">
          <mxGeometry x="460" y="100" width="140" height="60" as="geometry" />
        </mxCell>
        <mxCell id="UMcfs1S_rAOMvREuSRE9-20" value="" style="shape=module;jettyWidth=8;jettyHeight=4;" vertex="1" parent="UMcfs1S_rAOMvREuSRE9-19">
          <mxGeometry x="1" width="20" height="20" relative="1" as="geometry">
            <mxPoint x="-27" y="7" as="offset" />
          </mxGeometry>
        </mxCell>
        <mxCell id="UMcfs1S_rAOMvREuSRE9-21" value="«Abstract»&lt;br&gt;&lt;b&gt;Repository&lt;/b&gt;" style="html=1;dropTarget=0;fillColor=#fff2cc;strokeColor=#d6b656;" vertex="1" parent="UMcfs1S_rAOMvREuSRE9-1">
          <mxGeometry x="620" y="180" width="140" height="60" as="geometry" />
        </mxCell>
        <mxCell id="UMcfs1S_rAOMvREuSRE9-22" value="" style="shape=module;jettyWidth=8;jettyHeight=4;" vertex="1" parent="UMcfs1S_rAOMvREuSRE9-21">
          <mxGeometry x="1" width="20" height="20" relative="1" as="geometry">
            <mxPoint x="-27" y="7" as="offset" />
          </mxGeometry>
        </mxCell>
        <mxCell id="UMcfs1S_rAOMvREuSRE9-23" style="rounded=0;orthogonalLoop=1;jettySize=auto;html=1;exitX=1;exitY=0.5;exitDx=0;exitDy=0;entryX=0;entryY=0.5;entryDx=0;entryDy=0;endArrow=block;endFill=0;" edge="1" parent="UMcfs1S_rAOMvREuSRE9-1" source="UMcfs1S_rAOMvREuSRE9-24" target="UMcfs1S_rAOMvREuSRE9-21">
          <mxGeometry relative="1" as="geometry" />
        </mxCell>
        <mxCell id="UMcfs1S_rAOMvREuSRE9-24" value="«Repository»&lt;br&gt;&lt;b&gt;RecordRepository&lt;/b&gt;" style="html=1;dropTarget=0;" vertex="1" parent="UMcfs1S_rAOMvREuSRE9-1">
          <mxGeometry x="460" y="180" width="140" height="60" as="geometry" />
        </mxCell>
        <mxCell id="UMcfs1S_rAOMvREuSRE9-25" value="" style="shape=module;jettyWidth=8;jettyHeight=4;" vertex="1" parent="UMcfs1S_rAOMvREuSRE9-24">
          <mxGeometry x="1" width="20" height="20" relative="1" as="geometry">
            <mxPoint x="-27" y="7" as="offset" />
          </mxGeometry>
        </mxCell>
        <mxCell id="UMcfs1S_rAOMvREuSRE9-26" style="edgeStyle=none;rounded=0;orthogonalLoop=1;jettySize=auto;html=1;exitX=1;exitY=0.5;exitDx=0;exitDy=0;entryX=0;entryY=0.5;entryDx=0;entryDy=0;endArrow=open;endFill=0;" edge="1" parent="UMcfs1S_rAOMvREuSRE9-1" source="UMcfs1S_rAOMvREuSRE9-29" target="UMcfs1S_rAOMvREuSRE9-19">
          <mxGeometry relative="1" as="geometry" />
        </mxCell>
        <mxCell id="UMcfs1S_rAOMvREuSRE9-27" style="edgeStyle=none;rounded=0;orthogonalLoop=1;jettySize=auto;html=1;exitX=0;exitY=0.5;exitDx=0;exitDy=0;entryX=1;entryY=0.25;entryDx=0;entryDy=0;endArrow=diamondThin;endFill=1;" edge="1" parent="UMcfs1S_rAOMvREuSRE9-1" source="UMcfs1S_rAOMvREuSRE9-29" target="UMcfs1S_rAOMvREuSRE9-45">
          <mxGeometry relative="1" as="geometry" />
        </mxCell>
        <mxCell id="UMcfs1S_rAOMvREuSRE9-28" style="edgeStyle=none;rounded=0;orthogonalLoop=1;jettySize=auto;html=1;exitX=1;exitY=0.75;exitDx=0;exitDy=0;entryX=0;entryY=0.75;entryDx=0;entryDy=0;endArrow=open;endFill=0;dashed=1;" edge="1" parent="UMcfs1S_rAOMvREuSRE9-1" source="UMcfs1S_rAOMvREuSRE9-29" target="UMcfs1S_rAOMvREuSRE9-65">
          <mxGeometry relative="1" as="geometry" />
        </mxCell>
        <mxCell id="UMcfs1S_rAOMvREuSRE9-29" value="«Controller»&lt;br&gt;&lt;b&gt;ArduinoController&lt;/b&gt;" style="html=1;dropTarget=0;" vertex="1" parent="UMcfs1S_rAOMvREuSRE9-1">
          <mxGeometry x="240" y="170" width="140" height="60" as="geometry" />
        </mxCell>
        <mxCell id="UMcfs1S_rAOMvREuSRE9-30" value="" style="shape=module;jettyWidth=8;jettyHeight=4;" vertex="1" parent="UMcfs1S_rAOMvREuSRE9-29">
          <mxGeometry x="1" width="20" height="20" relative="1" as="geometry">
            <mxPoint x="-27" y="7" as="offset" />
          </mxGeometry>
        </mxCell>
        <mxCell id="UMcfs1S_rAOMvREuSRE9-31" style="edgeStyle=none;rounded=0;orthogonalLoop=1;jettySize=auto;html=1;exitX=1;exitY=0.5;exitDx=0;exitDy=0;entryX=0;entryY=0.5;entryDx=0;entryDy=0;endArrow=open;endFill=0;" edge="1" parent="UMcfs1S_rAOMvREuSRE9-1" source="UMcfs1S_rAOMvREuSRE9-35" target="UMcfs1S_rAOMvREuSRE9-24">
          <mxGeometry relative="1" as="geometry" />
        </mxCell>
        <mxCell id="UMcfs1S_rAOMvREuSRE9-32" style="edgeStyle=none;rounded=0;orthogonalLoop=1;jettySize=auto;html=1;exitX=0;exitY=0.5;exitDx=0;exitDy=0;entryX=1;entryY=0.5;entryDx=0;entryDy=0;dashed=1;endArrow=open;endFill=0;" edge="1" parent="UMcfs1S_rAOMvREuSRE9-1" source="UMcfs1S_rAOMvREuSRE9-35" target="UMcfs1S_rAOMvREuSRE9-37">
          <mxGeometry relative="1" as="geometry" />
        </mxCell>
        <mxCell id="UMcfs1S_rAOMvREuSRE9-33" style="edgeStyle=none;rounded=0;orthogonalLoop=1;jettySize=auto;html=1;exitX=0;exitY=0.75;exitDx=0;exitDy=0;entryX=1;entryY=0.5;entryDx=0;entryDy=0;dashed=1;endArrow=open;endFill=0;" edge="1" parent="UMcfs1S_rAOMvREuSRE9-1" source="UMcfs1S_rAOMvREuSRE9-35" target="UMcfs1S_rAOMvREuSRE9-41">
          <mxGeometry relative="1" as="geometry" />
        </mxCell>
        <mxCell id="UMcfs1S_rAOMvREuSRE9-34" style="edgeStyle=none;rounded=0;orthogonalLoop=1;jettySize=auto;html=1;exitX=0;exitY=0.25;exitDx=0;exitDy=0;entryX=1;entryY=0.5;entryDx=0;entryDy=0;endArrow=diamondThin;endFill=1;" edge="1" parent="UMcfs1S_rAOMvREuSRE9-1" source="UMcfs1S_rAOMvREuSRE9-35" target="UMcfs1S_rAOMvREuSRE9-45">
          <mxGeometry relative="1" as="geometry" />
        </mxCell>
        <mxCell id="UMcfs1S_rAOMvREuSRE9-35" value="«Controller»&lt;br&gt;&lt;b&gt;RecordController&lt;/b&gt;" style="html=1;dropTarget=0;" vertex="1" parent="UMcfs1S_rAOMvREuSRE9-1">
          <mxGeometry x="240" y="250" width="140" height="60" as="geometry" />
        </mxCell>
        <mxCell id="UMcfs1S_rAOMvREuSRE9-36" value="" style="shape=module;jettyWidth=8;jettyHeight=4;" vertex="1" parent="UMcfs1S_rAOMvREuSRE9-35">
          <mxGeometry x="1" width="20" height="20" relative="1" as="geometry">
            <mxPoint x="-27" y="7" as="offset" />
          </mxGeometry>
        </mxCell>
        <mxCell id="UMcfs1S_rAOMvREuSRE9-37" value="&lt;div&gt;«interface»&lt;b&gt;&lt;br&gt;&lt;/b&gt;&lt;/div&gt;&lt;div&gt;&lt;b&gt;IWheatherExtractor&lt;/b&gt;&lt;/div&gt;" style="html=1;fillColor=#fff2cc;strokeColor=#d6b656;" vertex="1" parent="UMcfs1S_rAOMvREuSRE9-1">
          <mxGeometry x="27.5" y="260" width="125" height="50" as="geometry" />
        </mxCell>
        <mxCell id="UMcfs1S_rAOMvREuSRE9-38" style="edgeStyle=none;rounded=0;orthogonalLoop=1;jettySize=auto;html=1;exitX=0.5;exitY=0;exitDx=0;exitDy=0;entryX=0.5;entryY=1;entryDx=0;entryDy=0;endArrow=block;endFill=0;dashed=1;" edge="1" parent="UMcfs1S_rAOMvREuSRE9-1" source="UMcfs1S_rAOMvREuSRE9-39" target="UMcfs1S_rAOMvREuSRE9-37">
          <mxGeometry relative="1" as="geometry" />
        </mxCell>
        <mxCell id="UMcfs1S_rAOMvREuSRE9-39" value="&lt;div&gt;«Extractor»&lt;b&gt;&lt;br&gt;&lt;/b&gt;&lt;/div&gt;&lt;div&gt;&lt;b&gt;OpenWeatherExtractor&lt;/b&gt;&lt;/div&gt;" style="html=1;dropTarget=0;" vertex="1" parent="UMcfs1S_rAOMvREuSRE9-1">
          <mxGeometry x="20" y="330" width="140" height="60" as="geometry" />
        </mxCell>
        <mxCell id="UMcfs1S_rAOMvREuSRE9-40" value="" style="shape=module;jettyWidth=8;jettyHeight=4;" vertex="1" parent="UMcfs1S_rAOMvREuSRE9-39">
          <mxGeometry x="1" width="20" height="20" relative="1" as="geometry">
            <mxPoint x="-27" y="7" as="offset" />
          </mxGeometry>
        </mxCell>
        <mxCell id="UMcfs1S_rAOMvREuSRE9-41" value="&lt;div&gt;«interface»&lt;b&gt;&lt;br&gt;&lt;/b&gt;&lt;/div&gt;&lt;div&gt;&lt;b&gt;IWheatherParser&lt;/b&gt;&lt;/div&gt;" style="html=1;fillColor=#fff2cc;strokeColor=#d6b656;" vertex="1" parent="UMcfs1S_rAOMvREuSRE9-1">
          <mxGeometry x="27.5" y="480" width="125" height="50" as="geometry" />
        </mxCell>
        <mxCell id="UMcfs1S_rAOMvREuSRE9-42" style="edgeStyle=none;rounded=0;orthogonalLoop=1;jettySize=auto;html=1;exitX=0.5;exitY=0;exitDx=0;exitDy=0;entryX=0.5;entryY=1;entryDx=0;entryDy=0;endArrow=block;endFill=0;dashed=1;" edge="1" parent="UMcfs1S_rAOMvREuSRE9-1" source="UMcfs1S_rAOMvREuSRE9-43" target="UMcfs1S_rAOMvREuSRE9-41">
          <mxGeometry relative="1" as="geometry" />
        </mxCell>
        <mxCell id="UMcfs1S_rAOMvREuSRE9-43" value="&lt;div&gt;«Parser»&lt;b&gt;&lt;br&gt;&lt;/b&gt;&lt;/div&gt;&lt;div&gt;&lt;b&gt;OpenWeatherParser&lt;/b&gt;&lt;/div&gt;" style="html=1;dropTarget=0;" vertex="1" parent="UMcfs1S_rAOMvREuSRE9-1">
          <mxGeometry x="20" y="550" width="140" height="60" as="geometry" />
        </mxCell>
        <mxCell id="UMcfs1S_rAOMvREuSRE9-44" value="" style="shape=module;jettyWidth=8;jettyHeight=4;" vertex="1" parent="UMcfs1S_rAOMvREuSRE9-43">
          <mxGeometry x="1" width="20" height="20" relative="1" as="geometry">
            <mxPoint x="-27" y="7" as="offset" />
          </mxGeometry>
        </mxCell>
        <mxCell id="UMcfs1S_rAOMvREuSRE9-45" value="&lt;div&gt;«Extractor»&lt;b&gt;&lt;br&gt;&lt;/b&gt;&lt;/div&gt;&lt;div&gt;&lt;b&gt;AuthMiddleware&lt;/b&gt;&lt;/div&gt;" style="html=1;dropTarget=0;" vertex="1" parent="UMcfs1S_rAOMvREuSRE9-1">
          <mxGeometry x="20" y="100" width="140" height="60" as="geometry" />
        </mxCell>
        <mxCell id="UMcfs1S_rAOMvREuSRE9-46" value="" style="shape=module;jettyWidth=8;jettyHeight=4;" vertex="1" parent="UMcfs1S_rAOMvREuSRE9-45">
          <mxGeometry x="1" width="20" height="20" relative="1" as="geometry">
            <mxPoint x="-27" y="7" as="offset" />
          </mxGeometry>
        </mxCell>
        <mxCell id="UMcfs1S_rAOMvREuSRE9-47" style="edgeStyle=none;rounded=0;orthogonalLoop=1;jettySize=auto;html=1;exitX=0.5;exitY=1;exitDx=0;exitDy=0;entryX=0.5;entryY=0;entryDx=0;entryDy=0;endArrow=diamondThin;endFill=0;" edge="1" parent="UMcfs1S_rAOMvREuSRE9-1" source="UMcfs1S_rAOMvREuSRE9-48" target="UMcfs1S_rAOMvREuSRE9-50">
          <mxGeometry relative="1" as="geometry" />
        </mxCell>
        <mxCell id="UMcfs1S_rAOMvREuSRE9-48" value="&lt;div&gt;«Src»&lt;/div&gt;&lt;div&gt;&lt;b&gt;Config&lt;/b&gt;&lt;/div&gt;" style="html=1;dropTarget=0;fillColor=#f8cecc;strokeColor=#b85450;" vertex="1" parent="UMcfs1S_rAOMvREuSRE9-1">
          <mxGeometry x="235" y="440" width="140" height="60" as="geometry" />
        </mxCell>
        <mxCell id="UMcfs1S_rAOMvREuSRE9-49" value="" style="shape=module;jettyWidth=8;jettyHeight=4;" vertex="1" parent="UMcfs1S_rAOMvREuSRE9-48">
          <mxGeometry x="1" width="20" height="20" relative="1" as="geometry">
            <mxPoint x="-27" y="7" as="offset" />
          </mxGeometry>
        </mxCell>
        <mxCell id="UMcfs1S_rAOMvREuSRE9-50" value="«interface»&lt;br&gt;&lt;div&gt;&lt;b&gt;DatabaseConfig&lt;/b&gt;&lt;/div&gt;" style="html=1;" vertex="1" parent="UMcfs1S_rAOMvREuSRE9-1">
          <mxGeometry x="250" y="570" width="110" height="50" as="geometry" />
        </mxCell>
        <mxCell id="UMcfs1S_rAOMvREuSRE9-51" value="«interface»&lt;br&gt;&lt;div&gt;&lt;b&gt;JwtResponsePayload&lt;/b&gt;&lt;/div&gt;" style="html=1;" vertex="1" parent="UMcfs1S_rAOMvREuSRE9-1">
          <mxGeometry x="235" y="630" width="145" height="50" as="geometry" />
        </mxCell>
        <mxCell id="UMcfs1S_rAOMvREuSRE9-52" value="database" style="shape=folder;fontStyle=1;tabWidth=110;tabHeight=30;tabPosition=left;html=1;boundedLbl=1;labelInHeader=1;container=0;collapsible=0;fillColor=#dae8fc;strokeColor=#6c8ebf;" vertex="1" parent="UMcfs1S_rAOMvREuSRE9-1">
          <mxGeometry x="440" y="390" width="160" height="190" as="geometry" />
        </mxCell>
        <mxCell id="UMcfs1S_rAOMvREuSRE9-53" value="&lt;div&gt;«interface»&lt;b&gt;&lt;br&gt;&lt;/b&gt;&lt;/div&gt;&lt;b&gt;IConnector&lt;/b&gt;" style="html=1;fillColor=#fff2cc;strokeColor=#d6b656;" vertex="1" parent="UMcfs1S_rAOMvREuSRE9-1">
          <mxGeometry x="457.5" y="430" width="125" height="50" as="geometry" />
        </mxCell>
        <mxCell id="UMcfs1S_rAOMvREuSRE9-54" style="edgeStyle=none;rounded=0;orthogonalLoop=1;jettySize=auto;html=1;exitX=0.5;exitY=0;exitDx=0;exitDy=0;entryX=0.5;entryY=1;entryDx=0;entryDy=0;endArrow=block;endFill=0;dashed=1;" edge="1" parent="UMcfs1S_rAOMvREuSRE9-1" source="UMcfs1S_rAOMvREuSRE9-55" target="UMcfs1S_rAOMvREuSRE9-53">
          <mxGeometry relative="1" as="geometry" />
        </mxCell>
        <mxCell id="UMcfs1S_rAOMvREuSRE9-55" value="&lt;div&gt;«Connector»&lt;b&gt;&lt;br&gt;&lt;/b&gt;&lt;/div&gt;&lt;div&gt;&lt;b&gt;PostgresDatabase&lt;/b&gt;&lt;/div&gt;" style="html=1;dropTarget=0;" vertex="1" parent="UMcfs1S_rAOMvREuSRE9-1">
          <mxGeometry x="450" y="500" width="140" height="60" as="geometry" />
        </mxCell>
        <mxCell id="UMcfs1S_rAOMvREuSRE9-56" value="" style="shape=module;jettyWidth=8;jettyHeight=4;" vertex="1" parent="UMcfs1S_rAOMvREuSRE9-55">
          <mxGeometry x="1" width="20" height="20" relative="1" as="geometry">
            <mxPoint x="-27" y="7" as="offset" />
          </mxGeometry>
        </mxCell>
        <mxCell id="UMcfs1S_rAOMvREuSRE9-57" style="rounded=0;orthogonalLoop=1;jettySize=auto;html=1;exitX=0;exitY=0.5;exitDx=0;exitDy=0;entryX=1;entryY=0.75;entryDx=0;entryDy=0;endArrow=diamondThin;endFill=1;" edge="1" parent="UMcfs1S_rAOMvREuSRE9-1" source="UMcfs1S_rAOMvREuSRE9-60" target="UMcfs1S_rAOMvREuSRE9-45">
          <mxGeometry relative="1" as="geometry" />
        </mxCell>
        <mxCell id="UMcfs1S_rAOMvREuSRE9-58" style="edgeStyle=none;rounded=0;orthogonalLoop=1;jettySize=auto;html=1;exitX=1;exitY=0.25;exitDx=0;exitDy=0;entryX=0;entryY=0.75;entryDx=0;entryDy=0;endArrow=open;endFill=0;" edge="1" parent="UMcfs1S_rAOMvREuSRE9-1" source="UMcfs1S_rAOMvREuSRE9-60" target="UMcfs1S_rAOMvREuSRE9-19">
          <mxGeometry relative="1" as="geometry" />
        </mxCell>
        <mxCell id="UMcfs1S_rAOMvREuSRE9-59" style="edgeStyle=none;rounded=0;orthogonalLoop=1;jettySize=auto;html=1;exitX=1;exitY=0.5;exitDx=0;exitDy=0;entryX=0;entryY=0.5;entryDx=0;entryDy=0;endArrow=open;endFill=0;" edge="1" parent="UMcfs1S_rAOMvREuSRE9-1" source="UMcfs1S_rAOMvREuSRE9-60" target="UMcfs1S_rAOMvREuSRE9-63">
          <mxGeometry relative="1" as="geometry" />
        </mxCell>
        <mxCell id="UMcfs1S_rAOMvREuSRE9-60" value="«Controller»&lt;br&gt;&lt;div&gt;&lt;b&gt;ConnectionsController&lt;/b&gt;&lt;/div&gt;" style="html=1;dropTarget=0;" vertex="1" parent="UMcfs1S_rAOMvREuSRE9-1">
          <mxGeometry x="237.5" y="330" width="140" height="60" as="geometry" />
        </mxCell>
        <mxCell id="UMcfs1S_rAOMvREuSRE9-61" value="" style="shape=module;jettyWidth=8;jettyHeight=4;" vertex="1" parent="UMcfs1S_rAOMvREuSRE9-60">
          <mxGeometry x="1" width="20" height="20" relative="1" as="geometry">
            <mxPoint x="-27" y="7" as="offset" />
          </mxGeometry>
        </mxCell>
        <mxCell id="UMcfs1S_rAOMvREuSRE9-62" style="edgeStyle=none;rounded=0;orthogonalLoop=1;jettySize=auto;html=1;exitX=1;exitY=0.5;exitDx=0;exitDy=0;entryX=0;entryY=0.75;entryDx=0;entryDy=0;endArrow=block;endFill=0;" edge="1" parent="UMcfs1S_rAOMvREuSRE9-1" source="UMcfs1S_rAOMvREuSRE9-63" target="UMcfs1S_rAOMvREuSRE9-21">
          <mxGeometry relative="1" as="geometry" />
        </mxCell>
        <mxCell id="UMcfs1S_rAOMvREuSRE9-63" value="«Repository»&lt;br&gt;&lt;b&gt;ConnectionsRepository&lt;/b&gt;" style="html=1;dropTarget=0;" vertex="1" parent="UMcfs1S_rAOMvREuSRE9-1">
          <mxGeometry x="460" y="255" width="140" height="60" as="geometry" />
        </mxCell>
        <mxCell id="UMcfs1S_rAOMvREuSRE9-64" value="" style="shape=module;jettyWidth=8;jettyHeight=4;" vertex="1" parent="UMcfs1S_rAOMvREuSRE9-63">
          <mxGeometry x="1" width="20" height="20" relative="1" as="geometry">
            <mxPoint x="-27" y="7" as="offset" />
          </mxGeometry>
        </mxCell>
        <mxCell id="UMcfs1S_rAOMvREuSRE9-65" value="«error»&lt;br&gt;&lt;div&gt;&lt;b&gt;ArduinoDoesNotExistsException&lt;/b&gt;&lt;/div&gt;" style="html=1;" vertex="1" parent="UMcfs1S_rAOMvREuSRE9-1">
          <mxGeometry x="640" y="430" width="210" height="50" as="geometry" />
        </mxCell>
        <mxCell id="UMcfs1S_rAOMvREuSRE9-66" value="«error»&lt;br&gt;&lt;div&gt;&lt;b&gt;ConnectionDoesNotExistsException&lt;/b&gt;&lt;/div&gt;" style="html=1;" vertex="1" parent="UMcfs1S_rAOMvREuSRE9-1">
          <mxGeometry x="632.5" y="505" width="225" height="50" as="geometry" />
        </mxCell>
        <mxCell id="UMcfs1S_rAOMvREuSRE9-67" value="«error»&lt;br&gt;&lt;div&gt;&lt;b&gt;MobileDoesNotExistsException&lt;/b&gt;&lt;/div&gt;" style="html=1;" vertex="1" parent="UMcfs1S_rAOMvREuSRE9-1">
          <mxGeometry x="651.25" y="580" width="187.5" height="50" as="geometry" />
        </mxCell>
        <mxCell id="UMcfs1S_rAOMvREuSRE9-68" style="edgeStyle=none;rounded=0;orthogonalLoop=1;jettySize=auto;html=1;exitX=0;exitY=0;exitDx=0;exitDy=135;exitPerimeter=0;endArrow=block;endFill=0;" edge="1" parent="UMcfs1S_rAOMvREuSRE9-1" source="UMcfs1S_rAOMvREuSRE9-2" target="UMcfs1S_rAOMvREuSRE9-2">
          <mxGeometry relative="1" as="geometry" />
        </mxCell>
      </root>
    </mxGraphModel>
  </diagram>
</mxfile>
